<mxfile host="app.diagrams.net" modified="2023-01-11T16:11:16.569Z" agent="5.0 (Windows NT 10.0; Win64; x64) AppleWebKit/537.36 (KHTML, like Gecko) Chrome/109.0.0.0 Safari/537.36" version="20.8.4" etag="0GAWYW0-e865xMUtCDoE" type="github">
  <diagram id="1oXcsv-ss0Ha1rc48Phb" name="Page-1">
    <mxGraphModel dx="1912" dy="1008" grid="1" gridSize="10" guides="1" tooltips="1" connect="1" arrows="1" fold="1" page="1" pageScale="1" pageWidth="1200" pageHeight="1600" math="0" shadow="0">
      <root>
        <mxCell id="0" />
        <mxCell id="1" parent="0" />
        <mxCell id="cvrnAA9U-axG7Zff3fUk-7" value="UI Server" style="verticalAlign=top;align=left;spacingTop=8;spacingLeft=2;spacingRight=12;shape=cube;size=10;direction=south;fontStyle=4;html=1;fillColor=none;" vertex="1" parent="1">
          <mxGeometry x="60" y="40" width="330" height="390" as="geometry" />
        </mxCell>
        <mxCell id="cvrnAA9U-axG7Zff3fUk-21" style="edgeStyle=orthogonalEdgeStyle;rounded=0;orthogonalLoop=1;jettySize=auto;html=1;entryX=0;entryY=0.5;entryDx=0;entryDy=0;entryPerimeter=0;" edge="1" parent="1" source="cvrnAA9U-axG7Zff3fUk-1" target="cvrnAA9U-axG7Zff3fUk-20">
          <mxGeometry relative="1" as="geometry" />
        </mxCell>
        <mxCell id="cvrnAA9U-axG7Zff3fUk-1" value="«Annotation»&lt;br&gt;&lt;b&gt;UI&lt;/b&gt;" style="html=1;dropTarget=0;" vertex="1" parent="1">
          <mxGeometry x="120" y="80" width="180" height="70" as="geometry" />
        </mxCell>
        <mxCell id="cvrnAA9U-axG7Zff3fUk-2" value="" style="shape=module;jettyWidth=8;jettyHeight=4;" vertex="1" parent="cvrnAA9U-axG7Zff3fUk-1">
          <mxGeometry x="1" width="20" height="20" relative="1" as="geometry">
            <mxPoint x="-27" y="7" as="offset" />
          </mxGeometry>
        </mxCell>
        <mxCell id="cvrnAA9U-axG7Zff3fUk-3" value="«Annotation»&lt;br&gt;&lt;b&gt;Report&lt;/b&gt;" style="html=1;dropTarget=0;" vertex="1" parent="1">
          <mxGeometry x="120" y="200" width="180" height="70" as="geometry" />
        </mxCell>
        <mxCell id="cvrnAA9U-axG7Zff3fUk-4" value="" style="shape=module;jettyWidth=8;jettyHeight=4;" vertex="1" parent="cvrnAA9U-axG7Zff3fUk-3">
          <mxGeometry x="1" width="20" height="20" relative="1" as="geometry">
            <mxPoint x="-27" y="7" as="offset" />
          </mxGeometry>
        </mxCell>
        <mxCell id="cvrnAA9U-axG7Zff3fUk-23" style="edgeStyle=orthogonalEdgeStyle;rounded=0;orthogonalLoop=1;jettySize=auto;html=1;entryX=0.187;entryY=1.039;entryDx=0;entryDy=0;entryPerimeter=0;" edge="1" parent="1" source="cvrnAA9U-axG7Zff3fUk-5" target="cvrnAA9U-axG7Zff3fUk-20">
          <mxGeometry relative="1" as="geometry" />
        </mxCell>
        <mxCell id="cvrnAA9U-axG7Zff3fUk-5" value="«Annotation»&lt;br&gt;&lt;b&gt;Swings&lt;/b&gt;" style="html=1;dropTarget=0;" vertex="1" parent="1">
          <mxGeometry x="120" y="330" width="180" height="70" as="geometry" />
        </mxCell>
        <mxCell id="cvrnAA9U-axG7Zff3fUk-6" value="" style="shape=module;jettyWidth=8;jettyHeight=4;" vertex="1" parent="cvrnAA9U-axG7Zff3fUk-5">
          <mxGeometry x="1" width="20" height="20" relative="1" as="geometry">
            <mxPoint x="-27" y="7" as="offset" />
          </mxGeometry>
        </mxCell>
        <mxCell id="cvrnAA9U-axG7Zff3fUk-8" value="Feed Server" style="verticalAlign=top;align=left;spacingTop=8;spacingLeft=2;spacingRight=12;shape=cube;size=10;direction=south;fontStyle=4;html=1;fillColor=none;" vertex="1" parent="1">
          <mxGeometry x="60" y="480" width="330" height="470" as="geometry" />
        </mxCell>
        <mxCell id="cvrnAA9U-axG7Zff3fUk-9" value="«Annotation»&lt;br&gt;&lt;b&gt;UI&lt;/b&gt;" style="html=1;dropTarget=0;" vertex="1" parent="1">
          <mxGeometry x="110" y="550" width="180" height="90" as="geometry" />
        </mxCell>
        <mxCell id="cvrnAA9U-axG7Zff3fUk-10" value="" style="shape=module;jettyWidth=8;jettyHeight=4;" vertex="1" parent="cvrnAA9U-axG7Zff3fUk-9">
          <mxGeometry x="1" width="20" height="20" relative="1" as="geometry">
            <mxPoint x="-27" y="7" as="offset" />
          </mxGeometry>
        </mxCell>
        <mxCell id="cvrnAA9U-axG7Zff3fUk-11" value="«Annotation»&lt;br&gt;&lt;b&gt;Report&lt;/b&gt;" style="html=1;dropTarget=0;" vertex="1" parent="1">
          <mxGeometry x="110" y="670" width="180" height="90" as="geometry" />
        </mxCell>
        <mxCell id="cvrnAA9U-axG7Zff3fUk-12" value="" style="shape=module;jettyWidth=8;jettyHeight=4;" vertex="1" parent="cvrnAA9U-axG7Zff3fUk-11">
          <mxGeometry x="1" width="20" height="20" relative="1" as="geometry">
            <mxPoint x="-27" y="7" as="offset" />
          </mxGeometry>
        </mxCell>
        <mxCell id="cvrnAA9U-axG7Zff3fUk-13" value="«Annotation»&lt;br&gt;&lt;b&gt;Swings&lt;/b&gt;" style="html=1;dropTarget=0;" vertex="1" parent="1">
          <mxGeometry x="110" y="800" width="180" height="90" as="geometry" />
        </mxCell>
        <mxCell id="cvrnAA9U-axG7Zff3fUk-14" value="" style="shape=module;jettyWidth=8;jettyHeight=4;" vertex="1" parent="cvrnAA9U-axG7Zff3fUk-13">
          <mxGeometry x="1" width="20" height="20" relative="1" as="geometry">
            <mxPoint x="-27" y="7" as="offset" />
          </mxGeometry>
        </mxCell>
        <mxCell id="cvrnAA9U-axG7Zff3fUk-15" value="&amp;laquo;Annotation&amp;raquo;&lt;br/&gt;&lt;b&gt;Component&lt;/b&gt;" style="html=1;dropTarget=0;fillColor=none;" vertex="1" parent="1">
          <mxGeometry x="680" y="80" width="180" height="70" as="geometry" />
        </mxCell>
        <mxCell id="cvrnAA9U-axG7Zff3fUk-16" value="" style="shape=module;jettyWidth=8;jettyHeight=4;fillColor=none;" vertex="1" parent="cvrnAA9U-axG7Zff3fUk-15">
          <mxGeometry x="1" width="20" height="20" relative="1" as="geometry">
            <mxPoint x="-27" y="7" as="offset" />
          </mxGeometry>
        </mxCell>
        <mxCell id="cvrnAA9U-axG7Zff3fUk-17" value="DB2" style="strokeWidth=2;html=1;shape=mxgraph.flowchart.database;whiteSpace=wrap;fillColor=none;" vertex="1" parent="1">
          <mxGeometry x="690" y="440" width="80" height="140" as="geometry" />
        </mxCell>
        <mxCell id="cvrnAA9U-axG7Zff3fUk-18" value="DB1" style="strokeWidth=2;html=1;shape=mxgraph.flowchart.database;whiteSpace=wrap;fillColor=none;" vertex="1" parent="1">
          <mxGeometry x="690" y="660" width="80" height="100" as="geometry" />
        </mxCell>
        <mxCell id="cvrnAA9U-axG7Zff3fUk-19" value="Mongo DB" style="strokeWidth=2;html=1;shape=mxgraph.flowchart.database;whiteSpace=wrap;fillColor=none;" vertex="1" parent="1">
          <mxGeometry x="690" y="220" width="80" height="120" as="geometry" />
        </mxCell>
        <mxCell id="cvrnAA9U-axG7Zff3fUk-22" style="edgeStyle=orthogonalEdgeStyle;rounded=0;orthogonalLoop=1;jettySize=auto;html=1;entryX=0;entryY=0.5;entryDx=0;entryDy=0;" edge="1" parent="1" source="cvrnAA9U-axG7Zff3fUk-20" target="cvrnAA9U-axG7Zff3fUk-15">
          <mxGeometry relative="1" as="geometry" />
        </mxCell>
        <mxCell id="cvrnAA9U-axG7Zff3fUk-20" value="" style="strokeWidth=2;html=1;shape=mxgraph.flowchart.direct_data;whiteSpace=wrap;fillColor=none;" vertex="1" parent="1">
          <mxGeometry x="520" y="85" width="100" height="60" as="geometry" />
        </mxCell>
        <mxCell id="cvrnAA9U-axG7Zff3fUk-26" value="" style="swimlane;startSize=0;fillColor=none;" vertex="1" parent="1">
          <mxGeometry x="40" y="20" width="450" height="960" as="geometry" />
        </mxCell>
      </root>
    </mxGraphModel>
  </diagram>
</mxfile>
